<svg xmlns="http://www.w3.org/2000/svg" xmlns:xlink="http://www.w3.org/1999/xlink" width="350" zoomAndPan="magnify" viewBox="0 0 262.5 56.249996" height="75" preserveAspectRatio="xMidYMid meet" version="1.0"><defs><g/><clipPath id="c8937bd69d"><path d="M 18.804688 19 L 24 19 L 24 24 L 18.804688 24 Z M 18.804688 19 " clip-rule="nonzero"/></clipPath><clipPath id="1263dd8637"><path d="M 44 6 L 70.617188 6 L 70.617188 20 L 44 20 Z M 44 6 " clip-rule="nonzero"/></clipPath><clipPath id="435347cb83"><path d="M 43 6 L 70.617188 6 L 70.617188 20 L 43 20 Z M 43 6 " clip-rule="nonzero"/></clipPath><clipPath id="dce3d0c71d"><path d="M 20 13 L 70.617188 13 L 70.617188 50 L 20 50 Z M 20 13 " clip-rule="nonzero"/></clipPath><clipPath id="c34f22211a"><path d="M 20 12 L 70.617188 12 L 70.617188 50 L 20 50 Z M 20 12 " clip-rule="nonzero"/></clipPath><clipPath id="11b755f052"><path d="M 21 46 L 70.617188 46 L 70.617188 50 L 21 50 Z M 21 46 " clip-rule="nonzero"/></clipPath><clipPath id="cf8533802f"><path d="M 20 13 L 70.617188 13 L 70.617188 18 L 20 18 Z M 20 13 " clip-rule="nonzero"/></clipPath><clipPath id="649e82bf25"><path d="M 65 9 L 70.617188 9 L 70.617188 12 L 65 12 Z M 65 9 " clip-rule="nonzero"/></clipPath><clipPath id="5f1098a3fd"><path d="M 39 17 L 70.617188 17 L 70.617188 51.363281 L 39 51.363281 Z M 39 17 " clip-rule="nonzero"/></clipPath><clipPath id="f972b7596b"><path d="M 41 19 L 70.617188 19 L 70.617188 50 L 41 50 Z M 41 19 " clip-rule="nonzero"/></clipPath><clipPath id="2821e6a75d"><path d="M 41 19 L 70.617188 19 L 70.617188 51 L 41 51 Z M 41 19 " clip-rule="nonzero"/></clipPath><clipPath id="1b82451ea3"><path d="M 70 1.035156 L 70.617188 1.035156 L 70.617188 11 L 70 11 Z M 70 1.035156 " clip-rule="nonzero"/></clipPath><clipPath id="25d1ad7824"><path d="M 71.28125 0.886719 L 71.933594 0.886719 L 71.933594 54.621094 L 71.28125 54.621094 Z M 71.28125 0.886719 " clip-rule="nonzero"/></clipPath><clipPath id="6f3d767a93"><path d="M 70.394531 0 L 72.613281 0 L 72.613281 55.511719 L 70.394531 55.511719 Z M 70.394531 0 " clip-rule="nonzero"/></clipPath></defs><g fill="#ff00ff" fill-opacity="1"><g transform="translate(72.690796, 44.134018)"><g><path d="M 21.625 -32.34375 C 23.625 -32.34375 25.40625 -31.878906 26.96875 -30.953125 C 28.539062 -30.023438 29.765625 -28.753906 30.640625 -27.140625 C 31.515625 -25.523438 31.953125 -23.71875 31.953125 -21.71875 L 31.953125 -21.109375 C 31.953125 -19.097656 31.515625 -17.273438 30.640625 -15.640625 C 29.765625 -14.015625 28.539062 -12.738281 26.96875 -11.8125 C 25.40625 -10.894531 23.625 -10.4375 21.625 -10.4375 L 13.859375 -10.4375 L 13.859375 0 L 3.484375 0 L 3.484375 -32.34375 Z M 13.859375 -18 L 18.140625 -18 C 19.234375 -18 20.054688 -18.28125 20.609375 -18.84375 C 21.160156 -19.40625 21.4375 -20.175781 21.4375 -21.15625 L 21.4375 -21.53125 C 21.4375 -22.53125 21.160156 -23.300781 20.609375 -23.84375 C 20.054688 -24.394531 19.234375 -24.671875 18.140625 -24.671875 L 13.859375 -24.671875 Z M 13.859375 -18 "/></g></g></g><g fill="#ff00ff" fill-opacity="1"><g transform="translate(111.747535, 44.134018)"><g><path d="M 3.15625 -27.734375 L 3.15625 -34.078125 L 12.5 -34.078125 L 12.5 -27.734375 Z M 3.15625 0 L 3.15625 -24.8125 L 12.5 -24.8125 L 12.5 0 Z M 3.15625 0 "/></g></g></g><g fill="#ff00ff" fill-opacity="1"><g transform="translate(132.521933, 44.134018)"><g><path d="M 3.15625 0 L 3.15625 -34.078125 L 12.5 -34.078125 L 12.5 0 Z M 3.15625 0 "/></g></g></g><g fill="#ff00ff" fill-opacity="1"><g transform="translate(153.296334, 44.134018)"><g><path d="M 19.359375 -24.8125 L 19.359375 -18.46875 L 14.09375 -18.46875 L 14.09375 -9.03125 C 14.09375 -7.894531 14.28125 -7.066406 14.65625 -6.546875 C 15.039062 -6.035156 15.734375 -5.78125 16.734375 -5.78125 L 19.359375 -5.78125 L 19.359375 -0.28125 C 18.609375 -0.03125 17.632812 0.171875 16.4375 0.328125 C 15.25 0.484375 14.21875 0.5625 13.34375 0.5625 C 10.59375 0.5625 8.472656 0.0625 6.984375 -0.9375 C 5.492188 -1.9375 4.75 -3.644531 4.75 -6.0625 L 4.75 -18.46875 L 1.265625 -18.46875 L 1.265625 -24.8125 L 5.125 -24.8125 L 7.140625 -32.34375 L 14.09375 -32.34375 L 14.09375 -24.8125 Z M 19.359375 -24.8125 "/></g></g></g><g fill="#ff00ff" fill-opacity="1"><g transform="translate(179.287541, 44.134018)"><g><path d="M 15.65625 -25.375 C 20.195312 -25.375 23.664062 -24.304688 26.0625 -22.171875 C 28.457031 -20.046875 29.65625 -16.789062 29.65625 -12.40625 L 29.65625 -10.8125 L 11.046875 -10.8125 C 11.046875 -9.019531 11.441406 -7.671875 12.234375 -6.765625 C 13.035156 -5.859375 14.300781 -5.40625 16.03125 -5.40625 C 17.59375 -5.40625 18.742188 -5.734375 19.484375 -6.390625 C 20.222656 -7.046875 20.59375 -7.925781 20.59375 -9.03125 L 29.65625 -9.03125 C 29.65625 -6.019531 28.507812 -3.664062 26.21875 -1.96875 C 23.9375 -0.28125 20.601562 0.5625 16.21875 0.5625 C 11.613281 0.5625 8.039062 -0.507812 5.5 -2.65625 C 2.957031 -4.800781 1.6875 -8.050781 1.6875 -12.40625 C 1.6875 -16.664062 2.925781 -19.890625 5.40625 -22.078125 C 7.882812 -24.273438 11.300781 -25.375 15.65625 -25.375 Z M 16.03125 -19.40625 C 13.082031 -19.40625 11.4375 -18.015625 11.09375 -15.234375 L 20.203125 -15.234375 C 20.203125 -16.515625 19.832031 -17.53125 19.09375 -18.28125 C 18.363281 -19.03125 17.34375 -19.40625 16.03125 -19.40625 Z M 16.03125 -19.40625 "/></g></g></g><g fill="#ff00ff" fill-opacity="1"><g transform="translate(215.759368, 44.134018)"><g><path d="M 17.90625 -25.421875 C 18.625 -25.421875 19.265625 -25.332031 19.828125 -25.15625 C 20.398438 -24.988281 20.6875 -24.890625 20.6875 -24.859375 L 20.6875 -17.015625 L 17.671875 -17.015625 C 15.734375 -17.015625 14.332031 -16.507812 13.46875 -15.5 C 12.601562 -14.5 12.171875 -13.015625 12.171875 -11.046875 L 12.171875 0 L 2.8125 0 L 2.8125 -24.8125 L 10.484375 -24.8125 L 11.09375 -21.0625 C 11.65625 -22.5 12.546875 -23.582031 13.765625 -24.3125 C 14.992188 -25.050781 16.375 -25.421875 17.90625 -25.421875 Z M 17.90625 -25.421875 "/></g></g></g><g fill="#00ffff" fill-opacity="1"><g transform="translate(70.927959, 44.134018)"><g><path d="M 21.625 -32.34375 C 23.625 -32.34375 25.40625 -31.878906 26.96875 -30.953125 C 28.539062 -30.023438 29.765625 -28.753906 30.640625 -27.140625 C 31.515625 -25.523438 31.953125 -23.71875 31.953125 -21.71875 L 31.953125 -21.109375 C 31.953125 -19.097656 31.515625 -17.273438 30.640625 -15.640625 C 29.765625 -14.015625 28.539062 -12.738281 26.96875 -11.8125 C 25.40625 -10.894531 23.625 -10.4375 21.625 -10.4375 L 13.859375 -10.4375 L 13.859375 0 L 3.484375 0 L 3.484375 -32.34375 Z M 13.859375 -18 L 18.140625 -18 C 19.234375 -18 20.054688 -18.28125 20.609375 -18.84375 C 21.160156 -19.40625 21.4375 -20.175781 21.4375 -21.15625 L 21.4375 -21.53125 C 21.4375 -22.53125 21.160156 -23.300781 20.609375 -23.84375 C 20.054688 -24.394531 19.234375 -24.671875 18.140625 -24.671875 L 13.859375 -24.671875 Z M 13.859375 -18 "/></g></g></g><g fill="#00ffff" fill-opacity="1"><g transform="translate(109.984698, 44.134018)"><g><path d="M 3.15625 -27.734375 L 3.15625 -34.078125 L 12.5 -34.078125 L 12.5 -27.734375 Z M 3.15625 0 L 3.15625 -24.8125 L 12.5 -24.8125 L 12.5 0 Z M 3.15625 0 "/></g></g></g><g fill="#00ffff" fill-opacity="1"><g transform="translate(130.759096, 44.134018)"><g><path d="M 3.15625 0 L 3.15625 -34.078125 L 12.5 -34.078125 L 12.5 0 Z M 3.15625 0 "/></g></g></g><g fill="#00ffff" fill-opacity="1"><g transform="translate(151.533497, 44.134018)"><g><path d="M 19.359375 -24.8125 L 19.359375 -18.46875 L 14.09375 -18.46875 L 14.09375 -9.03125 C 14.09375 -7.894531 14.28125 -7.066406 14.65625 -6.546875 C 15.039062 -6.035156 15.734375 -5.78125 16.734375 -5.78125 L 19.359375 -5.78125 L 19.359375 -0.28125 C 18.609375 -0.03125 17.632812 0.171875 16.4375 0.328125 C 15.25 0.484375 14.21875 0.5625 13.34375 0.5625 C 10.59375 0.5625 8.472656 0.0625 6.984375 -0.9375 C 5.492188 -1.9375 4.75 -3.644531 4.75 -6.0625 L 4.75 -18.46875 L 1.265625 -18.46875 L 1.265625 -24.8125 L 5.125 -24.8125 L 7.140625 -32.34375 L 14.09375 -32.34375 L 14.09375 -24.8125 Z M 19.359375 -24.8125 "/></g></g></g><g fill="#00ffff" fill-opacity="1"><g transform="translate(177.524704, 44.134018)"><g><path d="M 15.65625 -25.375 C 20.195312 -25.375 23.664062 -24.304688 26.0625 -22.171875 C 28.457031 -20.046875 29.65625 -16.789062 29.65625 -12.40625 L 29.65625 -10.8125 L 11.046875 -10.8125 C 11.046875 -9.019531 11.441406 -7.671875 12.234375 -6.765625 C 13.035156 -5.859375 14.300781 -5.40625 16.03125 -5.40625 C 17.59375 -5.40625 18.742188 -5.734375 19.484375 -6.390625 C 20.222656 -7.046875 20.59375 -7.925781 20.59375 -9.03125 L 29.65625 -9.03125 C 29.65625 -6.019531 28.507812 -3.664062 26.21875 -1.96875 C 23.9375 -0.28125 20.601562 0.5625 16.21875 0.5625 C 11.613281 0.5625 8.039062 -0.507812 5.5 -2.65625 C 2.957031 -4.800781 1.6875 -8.050781 1.6875 -12.40625 C 1.6875 -16.664062 2.925781 -19.890625 5.40625 -22.078125 C 7.882812 -24.273438 11.300781 -25.375 15.65625 -25.375 Z M 16.03125 -19.40625 C 13.082031 -19.40625 11.4375 -18.015625 11.09375 -15.234375 L 20.203125 -15.234375 C 20.203125 -16.515625 19.832031 -17.53125 19.09375 -18.28125 C 18.363281 -19.03125 17.34375 -19.40625 16.03125 -19.40625 Z M 16.03125 -19.40625 "/></g></g></g><g fill="#00ffff" fill-opacity="1"><g transform="translate(213.996531, 44.134018)"><g><path d="M 17.90625 -25.421875 C 18.625 -25.421875 19.265625 -25.332031 19.828125 -25.15625 C 20.398438 -24.988281 20.6875 -24.890625 20.6875 -24.859375 L 20.6875 -17.015625 L 17.671875 -17.015625 C 15.734375 -17.015625 14.332031 -16.507812 13.46875 -15.5 C 12.601562 -14.5 12.171875 -13.015625 12.171875 -11.046875 L 12.171875 0 L 2.8125 0 L 2.8125 -24.8125 L 10.484375 -24.8125 L 11.09375 -21.0625 C 11.65625 -22.5 12.546875 -23.582031 13.765625 -24.3125 C 14.992188 -25.050781 16.375 -25.421875 17.90625 -25.421875 Z M 17.90625 -25.421875 "/></g></g></g><g fill="#055464" fill-opacity="1"><g transform="translate(71.809376, 44.134018)"><g><path d="M 21.625 -32.34375 C 23.625 -32.34375 25.40625 -31.878906 26.96875 -30.953125 C 28.539062 -30.023438 29.765625 -28.753906 30.640625 -27.140625 C 31.515625 -25.523438 31.953125 -23.71875 31.953125 -21.71875 L 31.953125 -21.109375 C 31.953125 -19.097656 31.515625 -17.273438 30.640625 -15.640625 C 29.765625 -14.015625 28.539062 -12.738281 26.96875 -11.8125 C 25.40625 -10.894531 23.625 -10.4375 21.625 -10.4375 L 13.859375 -10.4375 L 13.859375 0 L 3.484375 0 L 3.484375 -32.34375 Z M 13.859375 -18 L 18.140625 -18 C 19.234375 -18 20.054688 -18.28125 20.609375 -18.84375 C 21.160156 -19.40625 21.4375 -20.175781 21.4375 -21.15625 L 21.4375 -21.53125 C 21.4375 -22.53125 21.160156 -23.300781 20.609375 -23.84375 C 20.054688 -24.394531 19.234375 -24.671875 18.140625 -24.671875 L 13.859375 -24.671875 Z M 13.859375 -18 "/></g></g></g><g fill="#055464" fill-opacity="1"><g transform="translate(110.866115, 44.134018)"><g><path d="M 3.15625 -27.734375 L 3.15625 -34.078125 L 12.5 -34.078125 L 12.5 -27.734375 Z M 3.15625 0 L 3.15625 -24.8125 L 12.5 -24.8125 L 12.5 0 Z M 3.15625 0 "/></g></g></g><g fill="#055464" fill-opacity="1"><g transform="translate(131.640513, 44.134018)"><g><path d="M 3.15625 0 L 3.15625 -34.078125 L 12.5 -34.078125 L 12.5 0 Z M 3.15625 0 "/></g></g></g><g fill="#055464" fill-opacity="1"><g transform="translate(152.414914, 44.134018)"><g><path d="M 19.359375 -24.8125 L 19.359375 -18.46875 L 14.09375 -18.46875 L 14.09375 -9.03125 C 14.09375 -7.894531 14.28125 -7.066406 14.65625 -6.546875 C 15.039062 -6.035156 15.734375 -5.78125 16.734375 -5.78125 L 19.359375 -5.78125 L 19.359375 -0.28125 C 18.609375 -0.03125 17.632812 0.171875 16.4375 0.328125 C 15.25 0.484375 14.21875 0.5625 13.34375 0.5625 C 10.59375 0.5625 8.472656 0.0625 6.984375 -0.9375 C 5.492188 -1.9375 4.75 -3.644531 4.75 -6.0625 L 4.75 -18.46875 L 1.265625 -18.46875 L 1.265625 -24.8125 L 5.125 -24.8125 L 7.140625 -32.34375 L 14.09375 -32.34375 L 14.09375 -24.8125 Z M 19.359375 -24.8125 "/></g></g></g><g fill="#055464" fill-opacity="1"><g transform="translate(178.406121, 44.134018)"><g><path d="M 15.65625 -25.375 C 20.195312 -25.375 23.664062 -24.304688 26.0625 -22.171875 C 28.457031 -20.046875 29.65625 -16.789062 29.65625 -12.40625 L 29.65625 -10.8125 L 11.046875 -10.8125 C 11.046875 -9.019531 11.441406 -7.671875 12.234375 -6.765625 C 13.035156 -5.859375 14.300781 -5.40625 16.03125 -5.40625 C 17.59375 -5.40625 18.742188 -5.734375 19.484375 -6.390625 C 20.222656 -7.046875 20.59375 -7.925781 20.59375 -9.03125 L 29.65625 -9.03125 C 29.65625 -6.019531 28.507812 -3.664062 26.21875 -1.96875 C 23.9375 -0.28125 20.601562 0.5625 16.21875 0.5625 C 11.613281 0.5625 8.039062 -0.507812 5.5 -2.65625 C 2.957031 -4.800781 1.6875 -8.050781 1.6875 -12.40625 C 1.6875 -16.664062 2.925781 -19.890625 5.40625 -22.078125 C 7.882812 -24.273438 11.300781 -25.375 15.65625 -25.375 Z M 16.03125 -19.40625 C 13.082031 -19.40625 11.4375 -18.015625 11.09375 -15.234375 L 20.203125 -15.234375 C 20.203125 -16.515625 19.832031 -17.53125 19.09375 -18.28125 C 18.363281 -19.03125 17.34375 -19.40625 16.03125 -19.40625 Z M 16.03125 -19.40625 "/></g></g></g><g fill="#055464" fill-opacity="1"><g transform="translate(214.877948, 44.134018)"><g><path d="M 17.90625 -25.421875 C 18.625 -25.421875 19.265625 -25.332031 19.828125 -25.15625 C 20.398438 -24.988281 20.6875 -24.890625 20.6875 -24.859375 L 20.6875 -17.015625 L 17.671875 -17.015625 C 15.734375 -17.015625 14.332031 -16.507812 13.46875 -15.5 C 12.601562 -14.5 12.171875 -13.015625 12.171875 -11.046875 L 12.171875 0 L 2.8125 0 L 2.8125 -24.8125 L 10.484375 -24.8125 L 11.09375 -21.0625 C 11.65625 -22.5 12.546875 -23.582031 13.765625 -24.3125 C 14.992188 -25.050781 16.375 -25.421875 17.90625 -25.421875 Z M 17.90625 -25.421875 "/></g></g></g><path fill="#0097b2" d="M 35.21875 10.824219 C 35.21875 12.167969 34.375 15.136719 33.335938 15.136719 L 30.066406 15.136719 C 29.027344 15.136719 28.183594 12.167969 28.183594 10.824219 C 28.183594 9.484375 29.027344 10.273438 30.066406 10.273438 L 33.335938 10.273438 C 34.375 10.273438 35.21875 9.484375 35.21875 10.824219 " fill-opacity="1" fill-rule="nonzero"/><path stroke-linecap="round" transform="matrix(0.0247076, 0, 0, -0.0247076, -2.030209, 78.815827)" fill="none" stroke-linejoin="round" d="M 1507.58877 2751.845664 C 1507.58877 2697.459649 1473.439412 2577.3045 1431.38511 2577.3045 L 1299.056347 2577.3045 C 1257.002045 2577.3045 1222.852687 2697.459649 1222.852687 2751.845664 C 1222.852687 2806.07358 1257.002045 2774.137606 1299.056347 2774.137606 L 1431.38511 2774.137606 C 1473.439412 2774.137606 1507.58877 2806.07358 1507.58877 2751.845664 Z M 1507.58877 2751.845664 " stroke="#000000" stroke-width="30" stroke-opacity="1" stroke-miterlimit="10"/><path fill="#0097b2" d="M 36.949219 9.867188 C 36.949219 10.679688 36.441406 11.339844 35.8125 11.339844 L 27.589844 11.339844 C 26.960938 11.339844 26.453125 10.679688 26.453125 9.867188 C 26.453125 9.050781 26.960938 8.394531 27.589844 8.394531 L 35.8125 8.394531 C 36.441406 8.394531 36.949219 9.050781 36.949219 9.867188 " fill-opacity="1" fill-rule="nonzero"/><path stroke-linecap="round" transform="matrix(0.0247076, 0, 0, -0.0247076, -2.030209, 78.815827)" fill="none" stroke-linejoin="round" d="M 1577.626574 2790.57989 C 1577.626574 2757.695323 1557.07372 2730.976612 1531.6198 2730.976612 L 1198.821657 2730.976612 C 1173.367737 2730.976612 1152.814883 2757.695323 1152.814883 2790.57989 C 1152.814883 2823.622556 1173.367737 2850.183168 1198.821657 2850.183168 L 1531.6198 2850.183168 C 1557.07372 2850.183168 1577.626574 2823.622556 1577.626574 2790.57989 Z M 1577.626574 2790.57989 " stroke="#000000" stroke-width="30" stroke-opacity="1" stroke-miterlimit="10"/><g clip-path="url(#c8937bd69d)"><path fill="#000000" d="M 23.011719 21.324219 C 23.011719 22.457031 22.09375 23.375 20.960938 23.375 C 19.832031 23.375 18.914062 22.457031 18.914062 21.324219 C 18.914062 20.195312 19.832031 19.277344 20.960938 19.277344 C 22.09375 19.277344 23.011719 20.195312 23.011719 21.324219 " fill-opacity="1" fill-rule="nonzero"/></g><g clip-path="url(#1263dd8637)"><path fill="#0097b2" d="M 73.714844 14.75 C 73.714844 17.15625 71.542969 19.105469 68.855469 19.105469 L 49.042969 19.105469 C 46.355469 19.105469 44.179688 17.15625 44.179688 14.75 L 44.179688 11 C 44.179688 8.59375 46.355469 6.640625 49.042969 6.640625 L 68.855469 6.640625 C 71.542969 6.640625 73.714844 8.59375 73.714844 11 L 73.714844 14.75 " fill-opacity="1" fill-rule="nonzero"/></g><g clip-path="url(#435347cb83)"><path stroke-linecap="round" transform="matrix(0.0247076, 0, 0, -0.0247076, -2.030209, 78.815827)" fill="none" stroke-linejoin="round" d="M 3065.653236 2592.956289 C 3065.653236 2495.567379 2977.750259 2416.676038 2868.978229 2416.676038 L 2067.100708 2416.676038 C 1958.328678 2416.676038 1870.267602 2495.567379 1870.267602 2592.956289 L 1870.267602 2744.731215 C 1870.267602 2842.120125 1958.328678 2921.169565 2067.100708 2921.169565 L 2868.978229 2921.169565 C 2977.750259 2921.169565 3065.653236 2842.120125 3065.653236 2744.731215 Z M 3065.653236 2592.956289 " stroke="#000000" stroke-width="30" stroke-opacity="1" stroke-miterlimit="10"/></g><g clip-path="url(#dce3d0c71d)"><path fill="#0097b2" d="M 79.863281 44.796875 C 79.863281 47.203125 77.914062 49.15625 75.507812 49.15625 L 25.320312 49.15625 C 22.914062 49.15625 20.960938 47.203125 20.960938 44.796875 L 20.960938 17.65625 C 20.960938 15.25 22.914062 13.300781 25.320312 13.300781 L 75.507812 13.300781 C 77.914062 13.300781 79.863281 15.25 79.863281 17.65625 L 79.863281 44.796875 " fill-opacity="1" fill-rule="nonzero"/></g><g clip-path="url(#c34f22211a)"><path stroke-linecap="round" transform="matrix(0.0247076, 0, 0, -0.0247076, -2.030209, 78.815827)" fill="none" stroke-linejoin="round" d="M 3314.500874 1376.859702 C 3314.500874 1279.470791 3235.609532 1200.421351 3138.220622 1200.421351 L 1106.966207 1200.421351 C 1009.577297 1200.421351 930.527857 1279.470791 930.527857 1376.859702 L 930.527857 2475.330722 C 930.527857 2572.719633 1009.577297 2651.610974 1106.966207 2651.610974 L 3138.220622 2651.610974 C 3235.609532 2651.610974 3314.500874 2572.719633 3314.500874 2475.330722 Z M 3314.500874 1376.859702 " stroke="#000000" stroke-width="30" stroke-opacity="1" stroke-miterlimit="10"/></g><g clip-path="url(#11b755f052)"><path fill="#000000" d="M 21.523438 46.9375 C 22.269531 48.261719 23.6875 49.15625 25.320312 49.15625 L 75.507812 49.15625 C 77.136719 49.15625 78.554688 48.261719 79.300781 46.9375 L 21.527344 46.9375 " fill-opacity="1" fill-rule="nonzero"/></g><g clip-path="url(#cf8533802f)"><path fill="#000000" d="M 79.863281 17.742188 L 79.863281 17.65625 C 79.863281 15.25 77.914062 13.300781 75.507812 13.300781 L 25.320312 13.300781 C 22.914062 13.300781 20.960938 15.25 20.960938 17.65625 L 20.960938 17.742188 L 79.863281 17.742188 " fill-opacity="1" fill-rule="nonzero"/></g><path fill="#000000" d="M 64.585938 10.140625 C 64.585938 11.339844 64.847656 12.308594 63.195312 12.308594 L 55 12.308594 C 53.347656 12.308594 53.484375 11.339844 53.484375 10.140625 C 53.484375 8.945312 53.347656 7.972656 55 7.972656 L 63.195312 7.972656 C 64.847656 7.972656 64.585938 8.945312 64.585938 10.140625 " fill-opacity="1" fill-rule="nonzero"/><g clip-path="url(#649e82bf25)"><path fill="#000000" d="M 70.558594 11.980469 L 65.949219 11.980469 L 65.949219 9.097656 L 70.558594 9.097656 L 70.558594 11.980469 " fill-opacity="1" fill-rule="nonzero"/></g><path fill="#000000" d="M 49.75 10.824219 C 49.75 11.640625 49.09375 12.296875 48.28125 12.296875 C 47.464844 12.296875 46.808594 11.640625 46.808594 10.824219 C 46.808594 10.011719 47.464844 9.351562 48.28125 9.351562 C 49.09375 9.351562 49.75 10.011719 49.75 10.824219 " fill-opacity="1" fill-rule="nonzero"/><g clip-path="url(#5f1098a3fd)"><path fill="#000000" d="M 73.546875 34.726562 C 73.546875 44.015625 66.015625 51.542969 56.730469 51.542969 C 47.441406 51.542969 39.914062 44.015625 39.914062 34.726562 C 39.914062 25.441406 47.441406 17.910156 56.730469 17.910156 C 66.015625 17.910156 73.546875 25.441406 73.546875 34.726562 " fill-opacity="1" fill-rule="nonzero"/></g><g clip-path="url(#f972b7596b)"><path fill="#0097b2" d="M 71.753906 34.726562 C 71.753906 43.023438 65.027344 49.753906 56.730469 49.753906 C 48.433594 49.753906 41.707031 43.023438 41.707031 34.726562 C 41.707031 26.429688 48.433594 19.707031 56.730469 19.707031 C 65.027344 19.707031 71.753906 26.429688 71.753906 34.726562 " fill-opacity="1" fill-rule="nonzero"/></g><g clip-path="url(#2821e6a75d)"><path stroke-linecap="round" transform="matrix(0.0247076, 0, 0, -0.0247076, -2.030209, 78.815827)" fill="none" stroke-linejoin="round" d="M 2986.287598 1784.438615 C 2986.287598 1448.636593 2714.041326 1176.232223 2378.239304 1176.232223 C 2042.437282 1176.232223 1770.19101 1448.636593 1770.19101 1784.438615 C 1770.19101 2120.240637 2042.437282 2392.32881 2378.239304 2392.32881 C 2714.041326 2392.32881 2986.287598 2120.240637 2986.287598 1784.438615 Z M 2986.287598 1784.438615 " stroke="#000000" stroke-width="30" stroke-opacity="1" stroke-miterlimit="10"/></g><path fill="#000000" d="M 68.765625 34.726562 C 68.765625 41.375 63.378906 46.765625 56.730469 46.765625 C 50.082031 46.765625 44.695312 41.375 44.695312 34.726562 C 44.695312 28.082031 50.082031 22.691406 56.730469 22.691406 C 63.378906 22.691406 68.765625 28.082031 68.765625 34.726562 " fill-opacity="1" fill-rule="nonzero"/><path fill="#0097b2" d="M 66.035156 30.542969 C 66.035156 33.375 63.742188 35.667969 60.914062 35.667969 C 58.082031 35.667969 55.789062 33.375 55.789062 30.542969 C 55.789062 27.714844 58.082031 25.421875 60.914062 25.421875 C 63.742188 25.421875 66.035156 27.714844 66.035156 30.542969 " fill-opacity="1" fill-rule="nonzero"/><path stroke-linecap="round" transform="matrix(0.0247076, 0, 0, -0.0247076, -2.030209, 78.815827)" fill="none" stroke-linejoin="round" d="M 2754.830837 1953.762516 C 2754.830837 1839.140828 2662.026795 1746.336785 2547.563205 1746.336785 C 2432.941517 1746.336785 2340.137474 1839.140828 2340.137474 1953.762516 C 2340.137474 2068.226106 2432.941517 2161.030148 2547.563205 2161.030148 C 2662.026795 2161.030148 2754.830837 2068.226106 2754.830837 1953.762516 Z M 2754.830837 1953.762516 " stroke="#000000" stroke-width="30" stroke-opacity="1" stroke-miterlimit="10"/><path fill="#0097b2" d="M 66.546875 38.230469 C 66.546875 39.453125 65.550781 40.449219 64.328125 40.449219 C 63.101562 40.449219 62.109375 39.453125 62.109375 38.230469 C 62.109375 37 63.101562 36.011719 64.328125 36.011719 C 65.550781 36.011719 66.546875 37 66.546875 38.230469 " fill-opacity="1" fill-rule="nonzero"/><path stroke-linecap="round" transform="matrix(0.0247076, 0, 0, -0.0247076, -2.030209, 78.815827)" fill="none" stroke-linejoin="round" d="M 2775.541791 1642.62392 C 2775.541791 1593.13897 2735.226576 1552.823756 2685.741627 1552.823756 C 2636.098578 1552.823756 2595.941463 1593.13897 2595.941463 1642.62392 C 2595.941463 1692.425067 2636.098578 1732.424084 2685.741627 1732.424084 C 2735.226576 1732.424084 2775.541791 1692.425067 2775.541791 1642.62392 Z M 2775.541791 1642.62392 " stroke="#000000" stroke-width="30" stroke-opacity="1" stroke-miterlimit="10"/><path fill="#0097b2" d="M 41.792969 16.886719 L 35.816406 16.886719 L 35.816406 14.328125 L 41.792969 14.328125 L 41.792969 16.886719 " fill-opacity="1" fill-rule="nonzero"/><path stroke-linecap="round" transform="matrix(0.0247076, 0, 0, -0.0247076, -2.030209, 78.815827)" fill="none" stroke-linejoin="round" d="M 1773.669186 2506.476202 L 1531.777899 2506.476202 L 1531.777899 2610.030968 L 1773.669186 2610.030968 Z M 1773.669186 2506.476202 " stroke="#000000" stroke-width="30" stroke-opacity="1" stroke-miterlimit="10"/><path fill="#0097b2" d="M 27.792969 15.605469 C 27.792969 16.453125 27.101562 17.144531 26.253906 17.144531 C 25.40625 17.144531 24.71875 16.453125 24.71875 15.605469 C 24.71875 14.757812 25.40625 14.070312 26.253906 14.070312 C 27.101562 14.070312 27.792969 14.757812 27.792969 15.605469 " fill-opacity="1" fill-rule="nonzero"/><path stroke-linecap="round" transform="matrix(0.0247076, 0, 0, -0.0247076, -2.030209, 78.815827)" fill="none" stroke-linejoin="round" d="M 1207.042799 2558.332635 C 1207.042799 2524.025178 1179.059297 2496.041676 1144.75184 2496.041676 C 1110.444383 2496.041676 1082.61898 2524.025178 1082.61898 2558.332635 C 1082.61898 2592.640092 1110.444383 2620.465495 1144.75184 2620.465495 C 1179.059297 2620.465495 1207.042799 2592.640092 1207.042799 2558.332635 Z M 1207.042799 2558.332635 " stroke="#000000" stroke-width="30" stroke-opacity="1" stroke-miterlimit="10"/><g clip-path="url(#1b82451ea3)"><path fill="#231f1f" d="M 75.46875 10.421875 C 75.414062 6.140625 70.777344 5.726562 70.777344 5.726562 C 70.777344 5.726562 75.582031 5.890625 75.46875 1.03125 C 75.554688 5.863281 80.167969 5.726562 80.167969 5.726562 C 80.167969 5.726562 75.46875 6.140625 75.46875 10.421875 " fill-opacity="1" fill-rule="nonzero"/></g><g clip-path="url(#25d1ad7824)"><path fill="#e8e8e8" d="M 70.402344 0 L 70.402344 55.511719 L 72.816406 55.511719 L 72.816406 0 Z M 70.402344 0 " fill-opacity="1" fill-rule="nonzero"/></g><g clip-path="url(#6f3d767a93)"><path stroke-linecap="butt" transform="matrix(0.740131, 0, 0, 0.740131, 70.393518, -0.00000197368)" fill="none" stroke-linejoin="miter" d="M 0.0013694 0.00000266667 L 0.0013694 75.002511 L 3.27887 75.002511 L 3.27887 0.00000266667 L 0.0013694 0.00000266667 " stroke="#000000" stroke-width="2" stroke-opacity="1" stroke-miterlimit="4"/></g></svg>